<?xml version="1.0" encoding="utf-8"?>
<!-- Generator: Adobe Illustrator 19.0.1, SVG Export Plug-In . SVG Version: 6.00 Build 0)  -->
<svg version="1.1" id="Layer_1" xmlns="http://www.w3.org/2000/svg" xmlns:xlink="http://www.w3.org/1999/xlink" x="0px" y="0px"
	 viewBox="0 0 80 80" style="enable-background:new 0 0 80 80;" xml:space="preserve">
<style type="text/css">
	.st0{fill:#1E232D;}
</style>
<g>
	<g>
		<path class="st0" d="M40,25c3.1,0,5.9,0.9,8.3,2.5l17.1-17.1C58.5,4.5,49.7,1,40,1c-9.7,0-18.5,3.5-25.4,9.4l17.1,17.1
			C34.1,25.9,36.9,25,40,25z M54.7,50.4C56.8,47.5,58,43.9,58,40s-1.2-7.5-3.3-10.4l-2.2,2.2c1.6,2.4,2.5,5.2,2.5,8.3
			s-0.9,5.9-2.5,8.3L54.7,50.4z M69.6,14.6l-2.1,2.1C72.8,23,76,31.1,76,40s-3.2,17-8.5,23.3l2.1,2.1C75.5,58.5,79,49.7,79,40
			S75.5,21.5,69.6,14.6z M40,55c-8.3,0-15-6.7-15-15c0-3.1,0.9-5.9,2.5-8.3L10.4,14.6C4.5,21.5,1,30.3,1,40c0,21.5,17.5,39,39,39
			c9.7,0,18.5-3.5,25.4-9.4L48.3,52.5C45.9,54.1,43.1,55,40,55z"/>
	</g>
</g>
</svg>
